<svg id="Group_3593" data-name="Group 3593" xmlns="http://www.w3.org/2000/svg" xmlns:xlink="http://www.w3.org/1999/xlink" width="120" height="112" viewBox="0 0 60.833 56.944">
  <defs>
    <linearGradient id="linear-gradient" x1="0.161" y1="0.041" x2="0.651" y2="0.969" gradientUnits="objectBoundingBox">
      <stop offset="0" stop-color="#4ec0db"/>
      <stop offset="1" stop-color="#2866b0"/>
    </linearGradient>
    <linearGradient id="linear-gradient-2" x1="0.134" y1="0.135" x2="0.84" y2="0.84" xlink:href="#linear-gradient"/>
    <linearGradient id="linear-gradient-3" x1="0.148" y1="0.148" x2="0.83" y2="0.83" xlink:href="#linear-gradient"/>
    <linearGradient id="linear-gradient-4" x1="0.496" y1="0.436" x2="0.918" y2="0.221" gradientUnits="objectBoundingBox">
      <stop offset="0" stop-color="#2866b0" stop-opacity="0"/>
      <stop offset="1" stop-color="#1b4476"/>
    </linearGradient>
  </defs>
  <path id="Path_12465" data-name="Path 12465" d="M335.069,330.41l-10.346-11.427-2.3-2.539-1.153-1.277h-3.741l10.341,12.246H316.286l-6.819-8.182c-.019.011-3.264.593-3.264.593l4.156,5.365,2.215,2.856,1.838,2.366Z" transform="translate(-274.235 -273.466)" fill="url(#linear-gradient)"/>
  <g id="Group_3592" data-name="Group 3592">
    <path id="Path_12466" data-name="Path 12466" d="M314.254,302.416a24.469,24.469,0,0,0,3.825-13.128,24.851,24.851,0,1,0-24.863,24.857,23.456,23.456,0,0,0,7.868-1.394l-4.156-5.365s3.245-.581,3.264-.592l6.819,8.182h11.582l-10.341-12.246h3.741l1.153,1.277c.383-.517.76-1.042,1.108-1.59Z" transform="translate(-264.959 -261.028)" fill="none"/>
    <path id="Path_12467" data-name="Path 12467" d="M296.135,279.257a14.072,14.072,0,0,0-8.555,2.9l2.215,2.6a10.762,10.762,0,1,1-3.018,3.39L284.47,285.4a14.161,14.161,0,1,0,11.665-6.145Z" transform="translate(-268.293 -264.66)" fill="url(#linear-gradient-2)"/>
    <path id="Path_12468" data-name="Path 12468" d="M292.106,313.034a24.85,24.85,0,1,1,24.863-24.857,24.288,24.288,0,0,1-2.328,10.379l1.876,2.07.59.65a27.882,27.882,0,0,0,3.277-13.1,28.267,28.267,0,1,0-28.278,28.273,27.437,27.437,0,0,0,10.082-1.955l-2.215-2.856A23.455,23.455,0,0,1,292.106,313.034Z" transform="translate(-263.849 -259.918)" fill="url(#linear-gradient-3)"/>
  </g>
  <path id="Path_12469" data-name="Path 12469" d="M306.208,332.991a28.194,28.194,0,0,0,6.367-1.691l-2.215-2.856a24.663,24.663,0,0,1-4.153,1.079Z" transform="translate(-274.236 -276.722)" fill="url(#linear-gradient-4)"/>
</svg>
